<?xml version="1.0" encoding="UTF-8" standalone="no"?>
<!-- Created with Inkscape (http://www.inkscape.org/) -->

<svg
   xmlns:dc="http://purl.org/dc/elements/1.1/"
   xmlns:cc="http://creativecommons.org/ns#"
   xmlns:rdf="http://www.w3.org/1999/02/22-rdf-syntax-ns#"
   xmlns:svg="http://www.w3.org/2000/svg"
   xmlns="http://www.w3.org/2000/svg"
   xmlns:sodipodi="http://sodipodi.sourceforge.net/DTD/sodipodi-0.dtd"
   xmlns:inkscape="http://www.inkscape.org/namespaces/inkscape"
   width="674.40002"
   height="147.39"
   id="svg2"
   version="1.1"
   inkscape:version="0.48.4 r9939"
   sodipodi:docname="New document 1">
  <defs
     id="defs4">
    <clipPath
       id="clipPath16">
      <path
         id="path18"
         inkscape:connector-curvature="0"
         d="m 0,595.276 841.89,0 L 841.89,0 0,0 0,595.276 z" />
    </clipPath>
  </defs>
  <sodipodi:namedview
     id="base"
     pagecolor="#ffffff"
     bordercolor="#666666"
     borderopacity="1.0"
     inkscape:pageopacity="0.0"
     inkscape:pageshadow="2"
     inkscape:zoom="0.5"
     inkscape:cx="478.14996"
     inkscape:cy="9.5061729"
     inkscape:document-units="px"
     inkscape:current-layer="layer1"
     showgrid="false"
     inkscape:window-width="1024"
     inkscape:window-height="520"
     inkscape:window-x="-4"
     inkscape:window-y="-4"
     inkscape:window-maximized="1" />
  <metadata
     id="metadata7">
    <rdf:RDF>
      <cc:Work
         rdf:about="">
        <dc:format>image/svg+xml</dc:format>
        <dc:type
           rdf:resource="http://purl.org/dc/dcmitype/StillImage" />
        <dc:title></dc:title>
      </cc:Work>
    </rdf:RDF>
  </metadata>
  <g
     inkscape:label="Layer 1"
     inkscape:groupmode="layer"
     id="layer1"
     transform="translate(0,-904.97218)">
    <path
       d="m 248.66625,977.20593 -28.94,50.31747 36.21625,0 0,-11.4275 -16.15375,0 14.93625,-24.98747 20.22,36.41497 15.0125,0 -29.20625,-50.31747 -12.085,0 z"
       inkscape:connector-curvature="0"
       id="path20"
       style="fill:#000000;fill-opacity:1;fill-rule:nonzero;stroke:none" />
    <path
       d="m 322.78,1027.5234 15.4775,-26.8962 0,26.8962 12.4525,0 0.035,-50.31747 -12.4375,0 -20.5275,35.63127 -20.555,-35.63127 -12.4025,0 0.0175,50.31747 12.42625,0 0,-26.8962 15.52,26.8962 9.99375,0 z"
       inkscape:connector-curvature="0"
       id="path22"
       style="fill:#000000;fill-opacity:1;fill-rule:nonzero;stroke:none" />
    <path
       d="m 221.34375,997.23468 -31.43125,0 0,10.61002 18.22,0 0,8.2512 -32.515,0 0,-27.98747 45.185,0 0,-10.9025 -45.61,0 c -9.87625,0 -13.06,3.025 -13.06,12.5025 l 0,25.27997 c 0,9.51 3.18375,12.535 13.06,12.535 l 33.1075,0 c 9.87625,0 13.04375,-3.025 13.04375,-12.535 l 0,-17.75372"
       inkscape:connector-curvature="0"
       id="path24"
       style="fill:#000000;fill-opacity:1;fill-rule:nonzero;stroke:none" />
    <path
       d="m 460.9575,977.20593 -29.58,0 c -9.92,0 -13.07125,3.025 -13.07125,12.51125 l 0,25.27122 c 0,9.51 3.15125,12.5188 13.07125,12.5188 l 29.58,0 c 9.8775,0 13.0775,-3.0088 13.0775,-12.5188 l 0,-9.1775 -13.52,0 0,10.285 -28.705,0 0,-27.97122 28.705,0 0,9.11 13.52,0 0,-7.5175 c 0,-9.48625 -3.2,-12.51125 -13.0775,-12.51125"
       inkscape:connector-curvature="0"
       id="path26"
       style="fill:#000000;fill-opacity:1;fill-rule:nonzero;stroke:none" />
    <path
       d="m 522.3775,1016.0959 -29.4225,0 0,-38.88997 -13.51875,0 0,37.78247 c 0,9.51 3.17625,12.535 13.06875,12.535 l 30.2975,0 c 9.91125,0 13.08625,-3.025 13.08625,-12.535 l 0,-37.78247 -13.51125,0 0,38.88997"
       inkscape:connector-curvature="0"
       id="path28"
       style="fill:#000000;fill-opacity:1;fill-rule:nonzero;stroke:none" />
    <path
       d="m 590.95,1001.6609 c 3.24125,-1.5425 5.03375,-4.40997 5.03375,-8.13497 l 0,-5.89375 c 0,-7.13375 -3.80875,-10.42625 -11.985,-10.42625 l -42.175,0 0,50.31747 39.24875,0 c 10.2275,0 15.37,-3.5412 15.37,-10.6437 l 0,-6.1 c 0,-4.285 -1.94125,-7.445 -5.4925,-9.1188 m -35.6075,-14.34497 24.22125,0 c 3.7425,0 3.9175,0.80875 3.9175,2.26 l 0,4.58375 c 0,1.45 -0.175,2.275 -3.9175,2.275 l -24.22125,0 0,-9.11875 z m 28.4725,26.04747 c 0,2.425 -0.5425,3.0838 -4.20125,3.0838 l -24.27125,0 0,-9.7263 24.27125,0 c 3.65875,0 4.20125,0.675 4.20125,3.0575 l 0,3.585"
       inkscape:connector-curvature="0"
       id="path30"
       style="fill:#000000;fill-opacity:1;fill-rule:nonzero;stroke:none" />
    <path
       d="m 615.05375,1006.6947 22.12125,0 0,-10.56877 -22.12125,0 0,-8.335 37.93375,0 0,-10.585 -51.46875,0 0,50.31747 51.935,0 0,-11.4275 -38.4,0 0,-9.4012 z"
       inkscape:connector-curvature="0"
       id="path32"
       style="fill:#000000;fill-opacity:1;fill-rule:nonzero;stroke:none" />
    <path
       d="m 370.215,1006.6947 22.12,0 0,-10.56877 -22.12,0 0,-8.335 37.9325,0 0,-10.585 -51.43625,0 0,50.31747 51.895,0 0,-11.4275 -38.39125,0 0,-9.4012 z"
       inkscape:connector-curvature="0"
       id="path34"
       style="fill:#000000;fill-opacity:1;fill-rule:nonzero;stroke:none" />
    <path
       d="m 513.3925,963.30718 0,-38.67 -7.36875,0 0,24.655 -12.49375,-24.655 -9.92625,0 0,38.67 7.34375,0 0,-30.14375 15.14375,30.14375 7.30125,0 z"
       inkscape:connector-curvature="0"
       id="path36"
       style="fill:#000000;fill-opacity:1;fill-rule:nonzero;stroke:none" />
    <path
       d="m 300.27625,933.16343 15.16125,30.14375 7.2925,0 0,-38.67 -7.35125,0 0,24.655 -12.51875,-24.655 -9.93625,0 0,38.67 7.3525,0 0,-30.14375 z"
       inkscape:connector-curvature="0"
       id="path38"
       style="fill:#000000;fill-opacity:1;fill-rule:nonzero;stroke:none" />
    <path
       d="m 179.76875,933.16343 15.145,30.14375 7.27625,0 0,-38.67 -7.36875,0 0,24.655 -12.485,-24.655 -9.91875,0 0,38.67 7.35125,0 0,-30.14375 z"
       inkscape:connector-curvature="0"
       id="path40"
       style="fill:#000000;fill-opacity:1;fill-rule:nonzero;stroke:none" />
    <path
       d="m 243.41375,924.63718 8.29375,0 0,38.67 -8.29375,0 0,-38.67 z"
       inkscape:connector-curvature="0"
       id="path42"
       style="fill:#000000;fill-opacity:1;fill-rule:nonzero;stroke:none" />
    <path
       d="m 368.16375,963.30718 7.87625,0 0,-32.51125 12.4125,0 0,-6.13375 -32.72375,0 0,6.13375 12.435,0 0,32.51125 z"
       inkscape:connector-curvature="0"
       id="path44"
       style="fill:#000000;fill-opacity:1;fill-rule:nonzero;stroke:none" />
    <path
       d="m 567.3625,963.30718 c 6.7675,0 12.235,-4.47125 12.235,-9.97625 l 0,-18.6925 c 0,-5.52875 -5.4675,-10.00125 -12.235,-10.00125 l -17.88,0 0,38.67 17.88,0 z m -10.595,-32.73125 10.3775,0 c 2.5425,0 5.15125,1.9375 5.15125,4.28375 l 0,18.26625 c 0,2.50125 -2.685,4.23375 -5.15125,4.23375 l -10.3775,0 0,-26.78375"
       inkscape:connector-curvature="0"
       id="path46"
       style="fill:#000000;fill-opacity:1;fill-rule:nonzero;stroke:none" />
    <path
       d="m 644.10125,934.34718 c 0,-5.50875 -5.50875,-9.97625 -12.22625,-9.97625 l -6.59375,0 c -6.73375,0 -12.21875,4.4675 -12.21875,9.97625 l 0,19.2575 c 0,5.5225 5.485,9.98625 12.21875,9.98625 l 6.59375,0 c 6.7175,0 12.22625,-4.46375 12.22625,-9.98625 l 0,-19.2575 z M 636.8,953.40968 c 0,2.32875 -2.63375,4.25 -5.16,4.25 l -6.125,0 c -2.5425,0 -5.16,-1.92125 -5.16,-4.25 l 0,-18.84625 c 0,-2.39125 2.6175,-4.26625 5.16,-4.26625 l 6.125,0 c 2.52625,0 5.16,1.875 5.16,4.26625 l 0,18.84625"
       inkscape:connector-curvature="0"
       id="path48"
       style="fill:#000000;fill-opacity:1;fill-rule:nonzero;stroke:none" />
    <path
       d="m 418.8575,953.36343 c 0,5.3725 5.1925,9.71375 11.6775,9.94375 l 17.03625,0 0,-6.12625 -16.3025,0 c -2.55,0 -5.16,-1.67125 -5.16,-4.02125 l 0,-6.9975 21.4625,0 0,-6.18875 -21.4625,0 0,-5.18 c 0,-2.33875 2.61,-4.03875 5.16,-4.03875 l 16.3025,0 0,-6.1175 -16.77,0 c -6.60125,0.1375 -11.935,4.52125 -11.935,9.95125 l -0.009,18.775"
       inkscape:connector-curvature="0"
       id="path50"
       style="fill:#000000;fill-opacity:1;fill-rule:nonzero;stroke:none" />
    <path
       d="m 32.747498,997.88468 28.89,16.67872 0.007,-33.36497 -28.8975,-16.6875 0,33.37375 z"
       inkscape:connector-curvature="0"
       id="path52"
       style="fill:#000000;fill-opacity:1;fill-rule:nonzero;stroke:none" />
    <path
       d="m 20.328748,1005.0534 41.31625,23.8463 0,23.4625 L 0,1016.7722 l 0,-71.16377 20.328748,11.735 0,47.70997 z"
       inkscape:connector-curvature="0"
       id="path54"
       style="fill:#000000;fill-opacity:1;fill-rule:nonzero;stroke:none" />
    <path
       d="m 64.596248,942.73218 -28.88125,16.6825 28.88125,16.675 28.8975,-16.675 -28.8975,-16.6825 z"
       inkscape:connector-curvature="0"
       id="path56"
       style="fill:#000000;fill-opacity:1;fill-rule:nonzero;stroke:none" />
    <path
       d="m 64.596248,928.39218 34.77375,20.11625 20.320002,-11.7275 -55.093752,-31.81 -61.57125,35.55625 20.29625,11.71875 41.275,-23.85375 z"
       inkscape:connector-curvature="0"
       id="path58"
       style="fill:#000000;fill-opacity:1;fill-rule:nonzero;stroke:none" />
    <path
       d="m 108.86375,1005.0534 0,-24.24747 -12.428752,7.16125 0,9.9175 -28.8975,16.69622 0,0.024 0,-33.40622 61.646252,-35.59 0,71.16372 -61.646252,35.59 0,-23.4387 41.326252,-23.87 z"
       inkscape:connector-curvature="0"
       id="path60"
       style="fill:#000000;fill-opacity:1;fill-rule:nonzero;stroke:none" />
    <path
       d="m 667.08125,1014.5297 c 4.02625,0 7.3175,3.2762 7.3175,7.31 0,4.0425 -3.29125,7.3187 -7.3175,7.3187 -4.02625,0 -7.31,-3.2762 -7.31,-7.3187 0,-4.0338 3.28375,-7.31 7.31,-7.31 m 0,13.37 c 3.3425,0 6.06,-2.7175 6.06,-6.06 0,-3.3425 -2.7175,-6.0675 -6.06,-6.0675 -3.33375,0 -6.05125,2.725 -6.05125,6.0675 0,3.3425 2.7175,6.06 6.05125,6.06"
       inkscape:connector-curvature="0"
       id="path62"
       style="fill:#000000;fill-opacity:1;fill-rule:nonzero;stroke:none" />
    <path
       d="m 667.15625,1022.5397 -1.5425,0 0,3.3087 -1.22375,0 0,-7.8837 3.8325,0 0,0.015 c 1.22625,0 2.20125,1.0675 2.20125,2.2837 0,1.1175 -0.825,2.0838 -1.90125,2.2425 l 1.975,3.3425 -1.4,0 -1.94125,-3.3087 z m -1.5425,-1.1175 2.48375,0 0.0675,0.018 c 0.61625,0 1.1,-0.5575 1.1,-1.1763 0,-0.625 -0.48375,-1.2162 -1.1,-1.2162 l -0.0675,0.018 -2.48375,-0.018 0,2.375"
       inkscape:connector-curvature="0"
       id="path64"
       style="fill:#000000;fill-opacity:1;fill-rule:nonzero;stroke:none" />
  </g>
</svg>
