<?xml version="1.0" encoding="UTF-8" standalone="no"?>
<!-- Created with Inkscape (http://www.inkscape.org/) -->

<svg
   xmlns:dc="http://purl.org/dc/elements/1.1/"
   xmlns:cc="http://creativecommons.org/ns#"
   xmlns:rdf="http://www.w3.org/1999/02/22-rdf-syntax-ns#"
   xmlns:svg="http://www.w3.org/2000/svg"
   xmlns="http://www.w3.org/2000/svg"
   xmlns:sodipodi="http://sodipodi.sourceforge.net/DTD/sodipodi-0.dtd"
   xmlns:inkscape="http://www.inkscape.org/namespaces/inkscape"
   viewBox="0 0 1000 210.155"
   id="svg6957"
   version="1.1"
   inkscape:version="0.91 r13725"
   sodipodi:docname="Nintendo Switch (Horizontal) (Print).svg">
  <defs
     id="defs6959" />
  <sodipodi:namedview
     id="base"
     pagecolor="#ffffff"
     bordercolor="#666666"
     borderopacity="1.0"
     inkscape:pageopacity="0.0"
     inkscape:pageshadow="2"
     inkscape:zoom="0.24748737"
     inkscape:cx="663.8909"
     inkscape:cy="613.50835"
     inkscape:document-units="px"
     inkscape:current-layer="layer1"
     showgrid="false"
     units="px"
     inkscape:window-width="1366"
     inkscape:window-height="705"
     inkscape:window-x="-8"
     inkscape:window-y="-8"
     inkscape:window-maximized="1" />
  <metadata
     id="metadata6962">
    <rdf:RDF>
      <cc:Work
         rdf:about="">
        <dc:format>image/svg+xml</dc:format>
        <dc:type
           rdf:resource="http://purl.org/dc/dcmitype/StillImage" />
        <dc:title></dc:title>
      </cc:Work>
    </rdf:RDF>
  </metadata>
  <g
     inkscape:label="Layer 1"
     inkscape:groupmode="layer"
     id="layer1"
     transform="translate(0,-842.20716)">
    <path
       d="m 32.67108,905.34229 c 0,11.03753 8.83002,19.86755 19.86755,19.86755 11.03753,0 19.86755,-8.83002 19.86755,-19.86755 0,-11.03753 -8.83002,-19.86755 -19.86755,-19.86755 l 0,0 c -11.03753,0 -19.86755,8.83002 -19.86755,19.86755 l 0,0 z m 51.65563,130.24281 -30.46358,0 c -9.71302,0 -19.42604,-3.9735 -26.04856,-10.596 -7.06402,-7.064 -11.03753,-16.3355 -11.03753,-26.04857 l 0,-102.86976 c 0,-9.71303 3.97351,-18.98455 10.59603,-26.04857 7.06402,-7.06401 16.33554,-11.03752 26.04856,-11.03752 l 30.46358,0 0.4415,176.60042 0,0 z m 15.45254,-193.37747 -45.91612,0 C 24.28256,842.20763 0,866.4902 0,896.07077 l 0,102.42826 c 0,29.58057 24.28256,53.86317 53.86313,53.86317 l 45.91612,0 c 0.883,0 1.3245,-0.883 1.3245,-1.3245 l 0,0 0,-207.50556 c 0.4415,-0.4415 -0.4415,-1.32451 -1.3245,-1.32451 l 0,0 z m 64.01766,94.48124 c 11.92053,0.4415 21.19205,10.15453 20.75055,21.63355 -0.4415,11.47903 -9.27152,20.75056 -20.75055,20.75056 -11.92053,-0.4415 -21.19205,-10.15453 -20.75055,-21.63356 0.4415,-11.47903 9.27152,-20.75055 20.75055,-20.75055 z m -39.7351,115.67333 32.22958,0 c 29.58057,0 53.86314,-24.2826 53.86314,-53.86317 l 0,-102.42826 c 0,-29.58057 -24.28257,-53.86314 -53.86314,-53.86314 l -32.67108,0 c -0.883,0 -1.3245,0.44151 -1.3245,1.32451 l 0,0 0,207.06406 c 0,0.883 0.883,1.766 1.766,1.766 l 0,0 z m 704.19426,-159.38194 -12.80353,0 0,-33.99558 12.80353,0 c 9.27152,0 16.77704,7.50552 16.77704,17.21854 0.4415,9.27152 -7.50552,16.77704 -16.77704,16.77704 z m -0.4415,-46.35761 -24.28256,0 0,58.71964 24.28256,0 c 16.77704,0 30.02207,-13.24503 30.02207,-29.13907 0,-16.33554 -13.24503,-29.58057 -30.02207,-29.58057 l 0,0 z m -45.03311,109.49227 c 12.36203,0 24.28256,6.62252 30.46357,17.21854 l 18.10155,-15.45254 c -11.03753,-16.33554 -29.13907,-26.04856 -49.00662,-26.04856 -32.67109,0 -59.16115,26.49006 -59.16115,59.16115 0,32.67109 26.49006,59.16119 59.16115,59.16119 19.86755,0 37.96909,-9.7131 49.00662,-26.0486 l -18.10155,-15.4525 c -6.18101,10.596 -17.66004,17.2185 -30.46357,17.2185 -19.42605,0 -34.87859,-15.4525 -34.87859,-34.43709 0,-19.86755 15.45254,-35.32009 34.87859,-35.32009 l 0,0 z m -170.41943,2.64901 35.32009,0 0,86.97567 23.84106,0 0,-86.97567 34.43708,0 0,-23.39956 -93.59823,0 0,23.39956 0,0 z m 318.7638,20.30905 -51.65563,0 0,-43.70861 -22.95806,0 0,110.37523 22.95806,0 0,-44.1501 51.65563,0 0,44.1501 22.95806,0 0,-110.37523 -22.95806,0 c 0,0 0,43.70861 0,43.70861 z m 63.57616,50.33112 -3.97351,11.9205 -3.97351,-11.9205 -4.41501,0 0,16.3355 3.0905,0 0,-12.8035 4.41501,12.362 0,0 2.64901,0 0,0 4.41501,-12.362 0,12.8035 3.09051,0 0,-16.3355 -5.29801,0 0,0 z M 927.15232,894.30476 c -10.15453,0 -18.10155,-8.38852 -18.10155,-18.10154 0,-10.15453 8.38852,-18.10155 18.10155,-18.10155 10.15452,0 18.10154,8.38853 18.10154,18.10155 0,9.71302 -8.38852,18.10154 -18.10154,18.10154 z m 0,-49.44812 c -17.21855,0 -31.34658,14.12804 -31.34658,31.34658 0,17.21854 14.12803,31.34658 31.34658,31.34658 17.21854,0 31.34658,-14.12804 31.34658,-31.34658 -0.4415,-17.21854 -14.12804,-31.34658 -31.34658,-31.34658 l 0,0 z m 37.52759,187.63796 4.85651,0 0,13.245 3.09051,0 0,-13.245 4.85651,0 0,-3.0905 -13.24503,0 0.4415,3.0905 0,0 z m -311.69978,-138.18984 -33.55408,0 0,-13.68653 31.34658,0 0,-10.59603 -31.34658,0 0,-12.36203 33.55408,0 0,-11.03752 -45.47461,0 0,58.71964 45.47461,0 0,-11.03753 0,0 z m 101.10376,11.03753 0,-58.71964 -11.92053,0 0,38.41059 -29.13908,-38.41059 -11.92053,0 0,58.71964 11.92053,0 0,-39.2936 29.13908,39.2936 11.92053,0 0,0 z m -390.72848,0 13.24503,0 0,-58.71964 -13.24503,0 0,58.71964 0,0 z m -51.21413,73.28919 c -15.89404,-2.64901 -26.04856,-5.73952 -26.04856,-13.24504 0,-8.38852 11.47902,-11.92053 26.93156,-11.92053 14.12804,0 28.69757,5.29802 33.99559,7.50552 l 7.94702,-18.98455 c -5.73952,-2.2075 -23.39956,-8.38852 -42.82561,-8.38852 -23.84106,0 -49.44812,11.47903 -49.44812,33.11259 0,17.66004 12.36203,26.49006 44.15011,31.78808 22.51655,3.97347 34.43708,5.73947 34.43708,15.45257 0,5.298 -4.41501,14.128 -29.58057,14.128 -20.30905,0 -34.43709,-7.5055 -39.2936,-10.1545 l -10.59603,18.9845 c 5.73952,3.0905 24.28257,11.9206 48.56513,11.9206 35.32008,0 53.86313,-12.3621 53.86313,-35.3201 -0.4415,-13.2451 -5.29801,-26.9316 -52.09713,-34.87862 l 0,0 z m 175.71744,37.08612 -23.39956,-80.35323 -19.42605,0 -23.39956,79.91173 -21.19205,-79.91173 -23.84106,0 31.34658,110.37523 26.49007,0 20.75055,-72.84764 20.30905,72.84764 26.49006,0 31.34658,-110.37523 -23.84106,0 -21.63355,80.35323 0,0 z m -55.62914,-149.66891 29.13907,39.2936 11.47903,0 0,-58.71964 -11.92053,0 0,38.41059 -28.69757,-38.41059 -11.92053,0 0,58.71964 11.92053,0 0,-39.2936 z m 128.47682,179.69091 24.72406,0 0,-110.37523 -24.72406,0 0,110.37523 z m 3.53201,-199.11695 -49.44812,0 0,12.36203 18.54304,0 0,46.35761 12.80353,0 0,-46.35761 18.10155,0 0,-12.36203 0,0 z m -286.09271,19.42604 29.13907,39.2936 11.47903,0 0,-58.71964 -11.92053,0 0,38.41059 -28.69757,-38.41059 -11.92053,0 0,58.71964 11.92053,0 0,-39.2936 0,0 z"
       id="path7516"
       inkscape:connector-curvature="0"
       style="fill:#000000" />
  </g>
</svg>
