<?xml version="1.0" encoding="UTF-8" standalone="no"?>
<!-- Created with Inkscape (http://www.inkscape.org/) -->
<svg
   xmlns:dc="http://purl.org/dc/elements/1.1/"
   xmlns:cc="http://web.resource.org/cc/"
   xmlns:rdf="http://www.w3.org/1999/02/22-rdf-syntax-ns#"
   xmlns:svg="http://www.w3.org/2000/svg"
   xmlns="http://www.w3.org/2000/svg"
   xmlns:sodipodi="http://sodipodi.sourceforge.net/DTD/sodipodi-0.dtd"
   xmlns:inkscape="http://www.inkscape.org/namespaces/inkscape"
   version="1.0"
   width="296"
   height="73.919998"
   viewBox="0 0 1 1"
   id="body"
   sodipodi:version="0.32"
   inkscape:version="0.45.1"
   sodipodi:docname="Super_Nintendo_logo.svg"
   sodipodi:docbase="/tmp"
   inkscape:output_extension="org.inkscape.output.svg.inkscape">
  <metadata
     id="metadata3313">
    <rdf:RDF>
      <cc:Work
         rdf:about="">
        <dc:format>image/svg+xml</dc:format>
        <dc:type
           rdf:resource="http://purl.org/dc/dcmitype/StillImage" />
      </cc:Work>
    </rdf:RDF>
  </metadata>
  <sodipodi:namedview
     inkscape:window-height="590"
     inkscape:window-width="791"
     inkscape:pageshadow="2"
     inkscape:pageopacity="0.0"
     guidetolerance="10.0"
     gridtolerance="10.0"
     objecttolerance="10.0"
     borderopacity="1.0"
     bordercolor="#666666"
     pagecolor="#ffffff"
     id="base"
     inkscape:zoom="2.3817568"
     inkscape:cx="148"
     inkscape:cy="36.959999"
     inkscape:window-x="22"
     inkscape:window-y="22"
     inkscape:current-layer="body" />
  <defs
     id="defs2260" />
  <title
     id="title2161">SVG drawing</title>
  <desc
     id="desc2163">This was produced by version 4.2 of GNU libplot, a free library for exporting 2-D vector graphics.</desc>
  <path
     d="M -1.3078245,0.01666641 C -1.3453703,0.01666641 -1.3818669,0.047528796 -1.3885714,0.085780333 L -1.3885714,0.086464616 L -1.3885714,0.087148908 L -1.3885714,0.08783318 L -1.3892556,0.088517462 L -1.3892556,0.089886135 L -1.3892556,0.090570417 L -1.3899399,0.091938981 L -1.3899399,0.093307556 L -1.3906243,0.094676218 L -1.3906243,0.096729064 L -1.3913086,0.098097629 L -1.3913086,0.10015059 L -1.391993,0.10220344 L -1.3926772,0.10425627 L -1.3933615,0.10836209 L -1.3947302,0.11315217 L -1.3954144,0.11794226 L -1.396783,0.12273233 L -1.3974675,0.12820671 L -1.3988359,0.13368107 L -1.4002044,0.13983971 L -1.4015731,0.14531409 L -1.4036259,0.15694712 L -1.4049945,0.1631058 L -1.4063631,0.16858016 L -1.4070474,0.17405453 L -1.4084161,0.1795289 L -1.4097847,0.18500327 L -1.4104689,0.19047765 L -1.4111533,0.19526771 L -1.4125218,0.19937349 L -1.4132063,0.20416356 L -1.4132063,0.20621645 L -1.4138904,0.20758505 L -1.4138904,0.20963793 L -1.4138904,0.21100653 L -1.4145747,0.21305941 L -1.4145747,0.21442801 L -1.4145747,0.21579659 L -1.415259,0.21716519 L -1.415259,0.21784949 L -1.415259,0.21853379 C -1.4159649,0.23525998 -1.4136386,0.25809425 -1.4084161,0.26232875 C -1.4017821,0.29916876 -1.2789767,0.46970227 -1.2825055,0.49567368 C -1.2858224,0.5217158 -1.3002973,0.59831807 -1.3002973,0.59831807 C -1.3047434,0.62414857 -1.3223675,0.64485021 -1.348198,0.64485021 C -1.3740282,0.64485031 -1.391649,0.62421908 -1.387203,0.59831807 L -1.3639369,0.47103911 L -1.4556325,0.47103911 L -1.4864259,0.64758741 C -1.492707,0.68343956 -1.4684302,0.71191129 -1.4323665,0.71191129 L -1.3016658,0.71191129 C -1.265461,0.71191129 -1.2309743,0.68343956 -1.2243403,0.64758741 C -1.2243403,0.64758741 -1.1906686,0.48268394 -1.1908098,0.47103911 C -1.1909509,0.45932368 -1.1942313,0.45803738 -1.1942313,0.45803738 C -1.1942313,0.44462815 -1.3035166,0.26424329 -1.3146674,0.25753866 C -1.3194665,0.25471568 -1.3234221,0.23685898 -1.3235633,0.22606105 C -1.323775,0.21533368 -1.3091931,0.14326123 -1.3091931,0.14326123 C -1.3047468,0.11743083 -1.2802797,0.096729064 -1.2544494,0.096729064 C -1.2286191,0.096729064 -1.2178413,0.11743083 -1.2222874,0.14326123 L -1.2421321,0.25753866 L -1.1497521,0.25753866 L -1.1175902,0.085780333 C -1.1103209,0.047528796 -1.1347881,0.01666641 -1.1723339,0.01666641 L -1.3078245,0.01666641 z M -1.0560036,0.01666641 L -1.1654909,0.64758741 C -1.1717722,0.68343946 -1.1474952,0.71191129 -1.1114315,0.71191129 L -0.98073085,0.71191129 C -0.94452607,0.71191129 -0.90942573,0.68343946 -0.90272113,0.64758741 L -0.78570648,0.01666641 L -0.86782199,0.01666641 L -0.97936225,0.62979576 C -0.98098555,0.63868824 -0.98963025,0.64621891 -0.99852265,0.64621891 L -1.0635308,0.64621891 C -1.072635,0.64621891 -1.0786988,0.63875884 -1.0772167,0.62979576 L -0.96841355,0.01666641 L -1.0560036,0.01666641 z M -0.74122726,0.01666641 L -0.87329637,0.71191129 L -0.78570648,0.71191129 L -0.7254884,0.39713501 L -0.61394814,0.39713501 C -0.57767265,0.39713501 -0.54325672,0.36845146 -0.53662267,0.33281124 L -0.48872193,0.085780333 C -0.48152323,0.04745829 -0.50591983,0.01666641 -0.54346563,0.01666641 L -0.65363732,0.01666641 L -0.74122726,0.01666641 z M -0.42850388,0.01666641 L -0.56536311,0.71191129 L -0.36828581,0.71191129 L -0.35459989,0.62569004 L -0.45176994,0.62569004 L -0.41208077,0.39097639 L -0.31491071,0.39097639 L -0.3012248,0.31844101 L -0.39839485,0.31844101 L -0.35528418,0.10288772 L -0.25811413,0.10288772 L -0.24442821,0.01666641 L -0.42850388,0.01666641 z M -0.19310601,0.01666641 L -0.32449086,0.71191129 L -0.23690096,0.71191129 L -0.17736719,0.39713501 L -0.11509623,0.39713501 C -0.10690965,0.40475713 -0.10596105,0.41881801 -0.10483181,0.42587559 C -0.10320854,0.43610874 -0.10150864,0.44917273 -0.10277891,0.45940599 C -0.10390794,0.46956893 -0.15067964,0.71191129 -0.15067964,0.71191129 L -0.063089743,0.71191129 C -0.063089743,0.71191129 -0.013820422,0.44790167 -0.013820422,0.44366713 C -0.013679182,0.4393621 -0.013811442,0.42582918 -0.018610492,0.41834827 C -0.021786506,0.41354891 -0.027313203,0.40252643 -0.033665002,0.39850362 C -0.045874607,0.39066988 -0.059668269,0.38550208 -0.059668269,0.38550208 L -0.065826924,0.38550208 C -0.040772936,0.37562164 0.0064877282,0.35934732 0.011498598,0.33281124 L 0.059399338,0.085780333 C 0.066668608,0.04745829 0.042201428,0.01666641 0.0046555782,0.01666641 L -0.19310601,0.01666641 z M 0.27563684,0.01666641 L 0.14356767,0.71191129 L 0.24415929,0.71191129 L 0.32559047,0.30886088 L 0.35775237,0.71191129 L 0.44534235,0.71191129 L 0.57741153,0.01666641 L 0.47681995,0.01666641 L 0.40839036,0.38002776 L 0.36322682,0.01666641 L 0.27563684,0.01666641 z M 0.62325935,0.01666641 L 0.49119017,0.71191129 L 0.57878009,0.71191129 L 0.71084921,0.01666641 L 0.62325935,0.01666641 z M 0.75669703,0.01666641 L 0.62462792,0.71191129 L 0.72590375,0.71191129 L 0.80733501,0.30886088 L 0.83949692,0.71191129 L 0.92708685,0.71191129 L 1.0591559,0.01666641 L 0.95788015,0.01666641 L 0.89013485,0.38002776 L 0.84497127,0.01666641 L 0.75669703,0.01666641 z M 1.0961079,0.01666641 L 1.0796848,0.10288772 L 1.1344285,0.10288772 L 1.0263096,0.71191129 L 1.1262169,0.71191129 L 1.2363886,0.10288772 L 1.2890795,0.10288772 L 1.3027653,0.01666641 L 1.0961079,0.01666641 z M 1.3369802,0.01666641 L 1.2001208,0.71191129 L 1.3971981,0.71191129 L 1.4108841,0.62569004 L 1.3137141,0.62569004 L 1.3540876,0.39097639 L 1.4512576,0.39097639 L 1.4649436,0.31844101 L 1.3677734,0.31844101 L 1.4101998,0.10288772 L 1.5073698,0.10288772 L 1.5210559,0.01666641 L 1.3369802,0.01666641 z M 1.5593765,0.01666641 L 1.4273072,0.71191129 L 1.5285831,0.71191129 L 1.6100143,0.30886088 L 1.6421762,0.71191129 L 1.729766,0.71191129 L 1.8618352,0.01666641 L 1.7605593,0.01666641 L 1.6928142,0.38002776 L 1.6476505,0.01666641 L 1.5593765,0.01666641 z M 1.9076831,0.01666641 L 1.7756139,0.71191129 L 1.9754284,0.71191129 C 2.011704,0.71191129 2.0467336,0.68343927 2.0534382,0.64758741 L 2.1595041,0.085780333 C 2.1667023,0.04745829 2.142306,0.01666641 2.1047604,0.01666641 L 1.9076831,0.01666641 z M 2.2833617,0.01666641 C 2.2458161,0.016666312 2.2100038,0.047528796 2.203299,0.085780333 L 2.1054447,0.64758741 C 2.0990928,0.68343927 2.1228272,0.71191129 2.1588197,0.71191129 L 2.3032063,0.71191129 C 2.3394111,0.71191129 2.3745113,0.68343927 2.3812161,0.64758741 L 2.4872819,0.085780333 C 2.4945513,0.047528894 2.4700132,0.01666641 2.4325383,0.01666641 L 2.2833617,0.01666641 z M 1.9822715,0.096729064 L 2.0226449,0.096729064 C 2.0484755,0.096729064 2.0660958,0.11743083 2.0616497,0.14326123 L 1.9754284,0.59831807 C 1.9709117,0.62414857 1.9458307,0.6455346 1.9200005,0.6455346 L 1.8803114,0.6455346 L 1.9822715,0.096729064 z M 2.334684,0.096729064 L 2.3374212,0.096729064 C 2.3632519,0.096729064 2.3801877,0.11743083 2.3757418,0.14326123 L 2.2936261,0.59831807 C 2.2891798,0.62407797 2.2653974,0.6455346 2.2395667,0.6455346 C 2.2137372,0.6455348 2.2029583,0.62414857 2.2074049,0.59831807 L 2.2888362,0.14326123 L 2.2895204,0.14120828 L 2.2902047,0.13915546 L 2.290889,0.13641819 L 2.2915733,0.13436536 L 2.2922575,0.13162822 L 2.2929418,0.12957527 L 2.2936261,0.12752242 L 2.2949947,0.12546946 L 2.295679,0.12341662 L 2.2970476,0.12136377 L 2.2977319,0.11931083 L 2.2991004,0.11725797 L 2.3004692,0.11588941 L 2.3018378,0.11383644 L 2.3032063,0.11178361 L 2.3052593,0.11041503 L 2.3066278,0.10904637 L 2.3079964,0.10767779 L 2.3100492,0.10630923 L 2.3121022,0.10494067 L 2.3134707,0.10357201 L 2.3155237,0.10220344 L 2.3175765,0.10151915 L 2.3196294,0.10015059 L 2.3209981,0.099466301 L 2.3237352,0.098781921 L 2.325788,0.098097629 L 2.3278409,0.098097629 L 2.3298939,0.097413356 L 2.3326311,0.097413356 L 2.334684,0.096729064 z M -0.6570588,0.099466301 L -0.61463243,0.099466301 C -0.60531645,0.099466203 -0.58556675,0.1208025 -0.58726058,0.13025955 L -0.62352828,0.30201792 C -0.62522217,0.31091045 -0.63721761,0.33144265 -0.64611006,0.33144265 L -0.69743227,0.33144265 L -0.69811655,0.33144265 L -0.69880088,0.33144265 L -0.69948516,0.33075836 L -0.70016945,0.33075836 L -0.70085375,0.33075836 L -0.70153805,0.33075836 L -0.70222235,0.33075836 L -0.70222235,0.33007406 L -0.70290663,0.33007406 L -0.70359093,0.33007406 L -0.70427523,0.32938975 L -0.70495952,0.32938975 L -0.70564382,0.32870546 L -0.70632812,0.32802116 L -0.70701242,0.32802116 L -0.70701242,0.32733687 L -0.70769671,0.32665258 L -0.708381,0.32596828 L -0.708381,0.32528399 L -0.70906531,0.32459969 L -0.7097496,0.3239154 L -0.7097496,0.32323109 L -0.7097496,0.32254681 L -0.71043389,0.32186251 L -0.71043389,0.3211782 L -0.71043389,0.32049391 L -0.71111818,0.31980962 L -0.71111818,0.31912532 C -0.71111828,0.31799627 -0.71125935,0.31628991 -0.71111818,0.31501954 L -0.67006043,0.10494067 C -0.66631985,0.10183539 -0.66171674,0.099466301 -0.6570588,0.099466301 z M -0.11167475,0.099466301 L -0.11099047,0.099466301 L -0.11030617,0.099466301 L -0.10962187,0.099466301 L -0.10893757,0.099466301 L -0.069248403,0.099466301 C -0.059932572,0.099466203 -0.040041558,0.1208025 -0.041876568,0.13025955 L -0.078144254,0.30133362 C -0.079767284,0.31029679 -0.1020276,0.33144265 -0.11099047,0.33144265 L -0.14862676,0.33144265 C -0.15638996,0.33144265 -0.16174806,0.32632398 -0.16231267,0.31912532 C -0.16231267,0.31799617 -0.16245388,0.31636046 -0.16231267,0.31501954 L -0.12193919,0.10494067 L -0.12125491,0.10425627 L -0.12057062,0.10357201 L -0.11920201,0.10288772 L -0.11851772,0.10288772 L -0.11783343,0.10220344 L -0.11714913,0.10151915 L -0.11646483,0.10151915 L -0.11578055,0.10083486 L -0.11509623,0.10083486 L -0.11372765,0.10015059 L -0.11304335,0.10015059 L -0.11235906,0.10015059 L -0.11167475,0.10015059 L -0.11167475,0.099466301 z M -1.5021646,0.77212937 L -1.5021646,1 L 2.4037978,1 L 2.4037978,0.77212937 L -1.5021646,0.77212937 z M 1.3691421,0.79607973 L 1.3698264,0.79607973 L 1.3705107,0.79607973 L 1.371195,0.79607973 L 1.3718793,0.79607973 L 1.3725635,0.79607973 L 1.4026727,0.79607973 C 1.4107891,0.79607973 1.4166131,0.80258822 1.4149898,0.81113417 L 1.4074627,0.84945487 L 1.3889866,0.84945487 L 1.3930924,0.8241359 C 1.3940099,0.81840573 1.390668,0.81387138 1.3848809,0.81387138 C 1.3791647,0.81387138 1.3735518,0.81837721 1.3725635,0.8241359 L 1.3691421,0.84261186 C 1.3685776,0.84371309 1.3702779,0.8489048 1.371195,0.84945487 C 1.3737358,0.85091592 1.3978825,0.89095598 1.3978825,0.8939341 C 1.3984474,0.89542316 1.3987786,0.89612084 1.3985668,0.89667131 C 1.3978607,0.90168887 1.3910396,0.93567612 1.3910396,0.93567612 C 1.3895573,0.94348162 1.3819775,0.95004636 1.373932,0.95004636 L 1.3451917,0.95004636 C 1.3372169,0.95004636 1.3320773,0.94348162 1.3335587,0.93567612 L 1.3404015,0.89667131 L 1.3602462,0.89667131 L 1.3554562,0.92472739 C 1.3545386,0.93045806 1.3578806,0.93567612 1.3636677,0.93567612 C 1.3691732,0.93567612 1.375068,0.93048608 1.3759851,0.92472739 L 1.3800908,0.90214563 C 1.3764207,0.89269589 1.3522188,0.85832543 1.350666,0.85013918 C 1.3496077,0.84922852 1.3491564,0.8442851 1.3492974,0.84055895 C 1.3495094,0.8364796 1.3547719,0.81113466 1.3547719,0.81113417 L 1.3554562,0.81113417 L 1.3554562,0.81044997 L 1.3554562,0.80976566 L 1.3554562,0.80908127 L 1.3561404,0.80771285 L 1.3561404,0.80702856 L 1.3568247,0.80634415 L 1.3568247,0.80565986 L 1.357509,0.80497565 L 1.357509,0.80429135 L 1.3581933,0.80360705 L 1.3588776,0.80292274 L 1.3588776,0.80223845 L 1.3595619,0.80223845 L 1.3602462,0.80155414 L 1.3609305,0.80086975 L 1.3616148,0.80018554 L 1.3616148,0.79950124 L 1.362299,0.79950124 L 1.3629833,0.79881694 L 1.3636677,0.79813263 L 1.3643519,0.79813263 L 1.3650363,0.79744833 L 1.3657206,0.79744833 L 1.3664049,0.79676403 L 1.3670891,0.79676403 L 1.3684578,0.79676403 L 1.3691421,0.79607973 z M 1.5265302,0.79607973 L 1.5511648,0.79607973 L 1.5545863,0.8542449 L 1.5860639,0.79607973 L 1.6106987,0.79607973 L 1.5600608,0.88503827 L 1.5477434,0.95004636 L 1.5258459,0.95004636 L 1.5367946,0.88024816 L 1.5265302,0.79607973 z M 1.7502949,0.79607973 L 1.7509793,0.79607973 L 1.7516636,0.79607973 L 1.7523478,0.79607973 L 1.7530322,0.79607973 L 1.7537166,0.79607973 L 1.7838255,0.79607973 C 1.791942,0.79607973 1.7976251,0.80258822 1.7961428,0.81113417 L 1.7886158,0.84945487 L 1.7701397,0.84945487 L 1.7742453,0.8241359 C 1.7751628,0.81840573 1.7718209,0.81387138 1.7660338,0.81387138 C 1.760317,0.81387138 1.754634,0.81837721 1.7537166,0.8241359 L 1.7502949,0.84261186 C 1.7495895,0.84371309 1.7512189,0.8489048 1.7523478,0.84945487 C 1.754748,0.85091592 1.7790355,0.89095598 1.7790355,0.8939341 C 1.7797409,0.89542316 1.7797198,0.89612084 1.7797198,0.89667131 C 1.7788017,0.90168887 1.7728769,0.93567612 1.7728769,0.93567612 C 1.7713946,0.94348162 1.7637445,0.95004636 1.7557694,0.95004636 L 1.7263447,0.95004636 C 1.71837,0.95004636 1.7132296,0.94348162 1.7147115,0.93567612 L 1.7215545,0.89667131 L 1.7413992,0.89667131 L 1.7366091,0.92472739 C 1.7356914,0.93045806 1.7392453,0.93567612 1.7448205,0.93567612 C 1.7505377,0.93567612 1.7560088,0.93048608 1.7571381,0.92472739 L 1.7612436,0.90214563 C 1.7575035,0.89269589 1.7333718,0.85832543 1.7318189,0.85013918 C 1.7307602,0.84922852 1.7303089,0.8442851 1.7304504,0.84055895 C 1.7306621,0.8364796 1.7359248,0.81113466 1.7359248,0.81113417 L 1.7366091,0.81044997 L 1.7366091,0.80976566 L 1.7366091,0.80908127 L 1.7372935,0.80771285 L 1.7372935,0.80702856 L 1.7379777,0.80634415 L 1.7379777,0.80565986 L 1.738662,0.80497565 L 1.738662,0.80429135 L 1.7393462,0.80360705 L 1.7400307,0.80292274 L 1.7400307,0.80223845 L 1.7407149,0.80223845 L 1.7413992,0.80155414 L 1.7420835,0.80086975 L 1.7427677,0.80018554 L 1.7434521,0.79950124 L 1.7441363,0.79881694 L 1.7448205,0.79813263 L 1.7455049,0.79813263 L 1.7461892,0.79744833 L 1.7468735,0.79744833 L 1.7475578,0.79676403 L 1.7482421,0.79676403 L 1.7496107,0.79676403 L 1.7502949,0.79607973 z M 1.9097361,0.79607973 L 1.9555839,0.79607973 L 1.9521623,0.81455568 L 1.9405293,0.81455568 L 1.9165789,0.95004636 L 1.8939972,0.95004636 L 1.9179476,0.81455568 L 1.9063144,0.81455568 L 1.9097361,0.79607973 z M 2.0890217,0.79607973 L 2.1300793,0.79607973 L 2.1266579,0.81455568 L 2.1054447,0.81455568 L 2.0958646,0.86314082 L 2.117762,0.86314082 L 2.1143405,0.87887956 L 2.0931274,0.87887956 L 2.0842315,0.9308862 L 2.1054447,0.9308862 L 2.1027075,0.95004636 L 2.0589127,0.95004636 L 2.0890217,0.79607973 z M 2.2580426,0.79607973 L 2.2833617,0.79607973 L 2.2874676,0.88503827 L 2.3264724,0.79676403 L 2.351107,0.79607973 L 2.3251037,0.95004636 L 2.3059436,0.95004636 L 2.3182609,0.86861514 L 2.2840461,0.95004636 L 2.2703601,0.95004636 L 2.2662543,0.86656233 L 2.2511997,0.95004636 L 2.2286179,0.95004636 L 2.2580426,0.79607973 z M -1.4173119,0.80155414 L -1.3769385,0.80155414 L -1.3796756,0.82071439 L -1.4015731,0.82071439 L -1.4104689,0.86861514 L -1.3892556,0.86861514 L -1.391993,0.88503827 L -1.4138904,0.88503827 L -1.422102,0.93704472 L -1.4008888,0.93704472 L -1.4043102,0.95620507 L -1.4481051,0.95620507 L -1.4173119,0.80155414 z M -1.2284462,0.80155414 L -1.2092859,0.80155414 L -1.1990215,0.88230107 L -1.1839669,0.80155414 L -1.1613851,0.80155414 L -1.1908098,0.95620507 L -1.2099702,0.95620507 L -1.2174975,0.86656233 L -1.2352891,0.95620507 L -1.2578709,0.95620507 L -1.2284462,0.80155414 z M -1.0231573,0.80155414 L -0.97799375,0.80155414 L -0.98073085,0.82071439 L -0.99236385,0.82071439 L -1.0169987,0.95620507 L -1.0388961,0.95620507 L -1.0149458,0.82071439 L -1.0272631,0.82071439 L -1.0231573,0.80155414 z M -0.82402705,0.80155414 L -0.78296926,0.80155414 L -0.78639077,0.82071439 L -0.80760395,0.82071439 L -0.81718411,0.86861514 L -0.79597094,0.86861514 L -0.79870808,0.88503827 L -0.81992126,0.88503827 L -0.82881714,0.93704472 L -0.80760395,0.93704472 L -0.81034108,0.95620507 L -0.85413612,0.95620507 L -0.82402705,0.80155414 z M -0.63105554,0.80155414 L -0.58726058,0.80155414 C -0.5791445,0.80155404 -0.57400431,0.80874684 -0.57562755,0.81729288 L -0.585892,0.87203664 C -0.5870213,0.87796487 -0.59742399,0.88280129 -0.60299939,0.88503827 L -0.60163081,0.88503827 L -0.60094651,0.88503827 L -0.60026221,0.88503827 L -0.60026221,0.88572248 L -0.59957792,0.88572248 L -0.59889361,0.88572248 L -0.59820933,0.88572248 L -0.59752503,0.88572248 L -0.59684073,0.88640679 L -0.59615644,0.88640679 L -0.59547214,0.88640679 L -0.59478783,0.88640679 L -0.59478783,0.88709108 L -0.59410354,0.88709108 L -0.59341926,0.88709108 L -0.59341926,0.88777539 L -0.59273495,0.88777539 C -0.59181748,0.88943398 -0.59136637,0.89436402 -0.59136637,0.89530271 C -0.59136637,0.89621287 -0.60231511,0.95620547 -0.60231511,0.95620507 L -0.62215968,0.95620507 C -0.62215968,0.95620507 -0.61156386,0.9023302 -0.61121095,0.90009282 C -0.61099917,0.89769319 -0.61147182,0.89480337 -0.61189525,0.8925655 C -0.61203638,0.89091429 -0.61211317,0.88808651 -0.61394814,0.88640679 L -0.62763405,0.88640679 L -0.64063568,0.95620507 L -0.66048027,0.95620507 L -0.63105554,0.80155414 z M -0.43534683,0.80155414 L -0.389499,0.80155414 L -0.39223618,0.82071439 L -0.40386923,0.82071439 L -0.42850388,0.95620507 L -0.45040137,0.95620507 L -0.42645098,0.82071439 L -0.43876831,0.82071439 L -0.43534683,0.80155414 z M -0.20747622,0.80155414 L -0.18147297,0.80155414 L -0.18968451,0.95620507 L -0.21568778,0.95620507 L -0.21226629,0.92062167 L -0.2280051,0.92062167 L -0.24100675,0.95620507 L -0.2642728,0.95620507 L -0.20747622,0.80155414 z M -0.025453455,0.80155414 L -0.0056088618,0.80155414 L -0.035033608,0.95620507 L -0.05419389,0.95620507 L -0.025453455,0.80155414 z M 0.151095,0.80155414 L 0.1702553,0.80155414 L 0.1805197,0.88230107 L 0.19557428,0.80155414 L 0.2174717,0.80155414 L 0.18873127,0.95620507 L 0.16888668,0.95620507 L 0.16204369,0.86656233 L 0.14425201,0.95620507 L 0.12167022,0.95620507 L 0.151095,0.80155414 z M 0.37759702,0.80155414 L 0.40291593,0.80155414 L 0.40702173,0.8911969 L 0.44602663,0.80223845 L 0.47066124,0.80223845 L 0.444658,0.95620507 L 0.42549776,0.95620507 L 0.43781506,0.87477385 L 0.40360026,0.95620507 L 0.38991433,0.95620507 L 0.38580852,0.87272084 L 0.37075403,0.95620507 L 0.34885654,0.95620507 L 0.37759702,0.80155414 z M 0.62599648,0.80155414 L 0.66636999,0.80155414 L 0.66363281,0.82071439 L 0.64173531,0.82071439 L 0.63283947,0.86861514 L 0.65405262,0.86861514 L 0.6513155,0.88503827 L 0.629418,0.88503827 L 0.62052216,0.93704472 L 0.64241966,0.93704472 L 0.63899813,0.95620507 L 0.59588748,0.95620507 L 0.62599648,0.80155414 z M 0.82444242,0.80155414 L 0.84360271,0.80155414 L 0.85386713,0.88230107 L 0.86892163,0.80155414 L 0.89081915,0.80155414 L 0.86207869,0.95620507 L 0.84291839,0.95620507 L 0.83539116,0.86656233 L 0.81759947,0.95620507 L 0.79501763,0.95620507 L 0.82444242,0.80155414 z M 1.0276782,0.80155414 L 1.0735261,0.80155414 L 1.0701047,0.82071439 L 1.0584716,0.82071439 L 1.0345213,0.95620507 L 1.0126238,0.95620507 L 1.0365741,0.82071439 L 1.0242569,0.82071439 L 1.0276782,0.80155414 z M -0.61257953,0.8200301 C -0.61363799,0.8200301 -0.61454043,0.82065765 -0.61531673,0.8213987 L -0.62421258,0.86793083 C -0.62421253,0.86829063 -0.62421258,0.86823429 -0.62421258,0.86861514 C -0.62421253,0.8701042 -0.62316921,0.87135234 -0.62147541,0.87135234 L -0.61326384,0.87135234 C -0.61121725,0.87135234 -0.60608949,0.86723315 -0.60573659,0.86519363 L -0.59820933,0.82687302 C -0.59785643,0.82467094 -0.60163706,0.8200301 -0.60368369,0.8200301 L -0.61257953,0.8200301 z M -0.20747622,0.86656233 L -0.22184643,0.90556714 L -0.21089771,0.90556714 L -0.20747622,0.86656233 z "
     style="font-style:normal;font-variant:normal;font-weight:normal;font-stretch:normal;letter-spacing:normal;word-spacing:normal;text-anchor:start;fill:#fc0c18;fill-opacity:1;fill-rule:nonzero;stroke:#fc0c18;stroke-width:0;stroke-linecap:butt;stroke-linejoin:miter;stroke-miterlimit:10.43299961;stroke-dasharray:none;stroke-dashoffset:0;stroke-opacity:1"
     id="polyline2177" />
</svg>
