<?xml version="1.0" encoding="UTF-8" standalone="no"?>
<!-- Created with Inkscape (http://www.inkscape.org/) -->
<svg
   xmlns:svg="http://www.w3.org/2000/svg"
   xmlns="http://www.w3.org/2000/svg"
   version="1.0"
   width="750.54327"
   height="115.8307"
   id="svg101576">
  <defs
     id="defs101578" />
  <g
     transform="translate(-35.53469,-263.1837)"
     id="layer1">
    <g
       transform="translate(7.088693,7.080902)"
       id="g101650">
      <path
         d="M 487.38946,354.59939 C 487.38946,355.67865 486.50444,356.64997 485.41436,356.64997 L 447.61769,356.64997 C 446.51682,356.64997 445.6318,355.67865 445.6318,354.59939 L 445.6318,327.29336 C 445.6318,326.2141 446.51682,325.35065 447.61769,325.35065 L 485.41436,325.35065 C 486.50444,325.35065 487.38946,326.2141 487.38946,327.29336 L 487.38946,354.59939 z M 485.74894,317.1481 L 447.27232,317.1481 C 441.70319,317.1481 437.15939,321.6811 437.15939,327.29336 L 437.15939,354.70725 C 437.15939,360.21165 441.70319,364.8526 447.27232,364.8526 L 485.74894,364.8526 C 491.32886,364.8526 495.86187,360.21165 495.86187,354.70725 L 495.86187,327.29336 C 495.86187,321.6811 491.32886,317.1481 485.74894,317.1481"
         style="fill:#929497;fill-rule:nonzero;stroke:none"
         id="path100608" />
      <path
         d="M 487.38946,301.28256 C 487.38946,302.25387 486.50444,303.22527 485.41436,303.22527 L 447.61769,303.22527 C 446.51682,303.22527 445.6318,302.25387 445.6318,301.28256 L 445.6318,273.86858 C 445.6318,272.78933 446.51682,271.92587 447.61769,271.92587 L 485.41436,271.92587 C 486.50444,271.92587 487.38946,272.78933 487.38946,273.86858 L 487.38946,301.28256 z M 485.74894,263.72332 L 447.27232,263.72332 C 441.70319,263.72332 437.15939,268.25633 437.15939,273.86858 L 437.15939,301.28256 C 437.15939,306.89482 441.70319,311.42782 447.27232,311.42782 L 485.74894,311.42782 C 491.32886,311.42782 495.86187,306.89482 495.86187,301.28256 L 495.86187,273.86858 C 495.86187,268.25633 491.32886,263.72332 485.74894,263.72332"
         style="fill:#221e1f;fill-rule:nonzero;stroke:none;stroke-width:0.05;stroke-linecap:butt;stroke-linejoin:miter;stroke-miterlimit:4;stroke-dasharray:none"
         id="path100646" />
      <path
         d="M 646.02323,344.66994 C 655.17559,348.33948 674.50562,351.25359 689.59407,351.25359 C 706.10718,351.25359 712.93911,345.64125 712.93911,338.51796 C 712.93911,332.04225 706.59284,328.37262 688.36369,321.6811 C 663.98256,312.72296 646.09878,305.59967 646.09878,289.51824 C 646.09878,273.00521 667.61981,263.1837 700.41936,263.1837 C 718.03333,263.1837 724.07736,264.26295 735.25878,266.31361 L 735.34513,282.07121 C 724.35792,280.02056 714.62276,276.45887 699.50193,276.45887 C 683.29106,276.45887 676.38357,281.63944 676.38357,286.92796 C 676.38357,294.59096 687.02537,298.2605 705.68629,304.9521 C 731.66471,314.23399 746.11638,321.35727 746.11638,337.00693 C 746.11638,353.19631 728.01676,364.8526 687.19808,364.8526 C 670.43669,364.8526 658.87755,363.77334 646.02323,361.61474 L 646.02323,344.66994"
         style="fill:#221e1f;fill-rule:nonzero;stroke:none;stroke-width:0.05;stroke-linecap:butt;stroke-linejoin:miter;stroke-miterlimit:4;stroke-dasharray:none"
         id="path100656" />
      <path
         d="M 559.14054,277.10644 L 539.71335,277.10644 L 539.71335,350.71396 L 559.14054,350.71396 C 588.96126,350.71396 607.77326,337.87039 607.77326,314.0181 C 607.77326,290.1659 588.96126,277.10644 559.14054,277.10644 z M 611.28094,357.51342 C 601.67528,361.83062 583.50007,364.63671 567.61295,364.63671 L 506.89219,364.63671 L 506.89219,263.3995 L 567.61295,263.3995 C 583.50007,263.3995 601.67528,266.20567 611.30253,270.52278 C 634.69071,281.09981 642.31048,298.0447 642.31048,314.0181 C 642.31048,329.99159 634.75547,346.93639 611.28094,357.51342"
         style="fill:#221e1f;fill-rule:nonzero;stroke:none;stroke-width:0.05;stroke-linecap:butt;stroke-linejoin:miter;stroke-miterlimit:4;stroke-dasharray:none"
         id="path100660" />
    </g>
  </g>
</svg>
