<svg xmlns="http://www.w3.org/2000/svg" version="1.1" width="500" height="463.264">
    <g transform="matrix(2.4919039,0,0,2.4919039,0,0)">
        <path style="fill:#0222a9" d="m111.6,82.6 4.4,-5 0,-33.8-21,8.1 0,0-17.4,31 17.4,-6.7z"/>
        <path style="fill:#011da9"
              d="m148.9,129.7 0,-57 21.3,-8.2 0,89.7-21.3,9 0,0-31.3,-40.9 0,54.1-22.6,9.5 0,-92.4 22.6,-8.6z"/>
        <path style="fill:#0222a9" d="m61.1,154.3-20,-38.8 0,47.7 0,0z"/>
        <path style="fill:#069330" d="m62.4,64.5 0,0 10,20.4 5.2,-2 17.4,-31-21,-8.2z"/>
        <path style="fill:#069330" d="m111.6,82.6 0,0 16,-18.1 21.3,8.2 0,57-31.3,-44.8z"/>
        <path style="fill:#069330"
              d="m95,185.9 0,-92.4-22.6,-8.6 0,46.9-31.4,-59.1 0,0-21.3,-8.2 0,89.7 21.3,9 0,-47.7 31.4,60.9z"/>
        <path style="fill:#fe2015" d="m41.1,72.7 21.3,-8.2 10,20.4 0,0 0,46.9z"/>
        <path style="fill:#fe2015" d="m117.6,144.6 6.4,9 24.9,9.6 0,0-31.3,-40.9z"/>
        <path style="fill:#ffc001" d="m72.5,84.9 22.6,-8.6 22.6,8.6 0,0-22.6,8.6z"/>
        <path style="fill:#ffc001" d="m148.9,56.3 21.3,8.2-21.3,8.2-21.3,-8.2 0,0z"/>
        <path style="fill:#ffc001" d="m41.1,56.3 21.3,8.2-21.3,8.2-21.3,-8.2 0,0z"/>
        <path style="fill:#ffc001" d="m95,35.6-21,8.1 21,8.2 21,-8.1 0,0z"/>
            </g>
</svg>