<?xml version="1.0" encoding="UTF-8" standalone="no"?>
<!-- Created with Inkscape (http://www.inkscape.org/) -->

<svg
   xmlns:dc="http://purl.org/dc/elements/1.1/"
   xmlns:cc="http://creativecommons.org/ns#"
   xmlns:rdf="http://www.w3.org/1999/02/22-rdf-syntax-ns#"
   xmlns:svg="http://www.w3.org/2000/svg"
   xmlns="http://www.w3.org/2000/svg"
   xmlns:sodipodi="http://sodipodi.sourceforge.net/DTD/sodipodi-0.dtd"
   xmlns:inkscape="http://www.inkscape.org/namespaces/inkscape"
   version="1.0"
   width="800"
   height="238.151"
   viewBox="0 0 800 238.151"
   id="Layer_1"
   xml:space="preserve"
   inkscape:version="0.48.4 r9939"
   sodipodi:docname="PlayStation_2_logo.svg"><metadata
   id="metadata27"><rdf:RDF><cc:Work
       rdf:about=""><dc:format>image/svg+xml</dc:format><dc:type
         rdf:resource="http://purl.org/dc/dcmitype/StillImage" /></cc:Work></rdf:RDF></metadata><sodipodi:namedview
   pagecolor="#ffffff"
   bordercolor="#666666"
   borderopacity="1"
   objecttolerance="10"
   gridtolerance="10"
   guidetolerance="10"
   inkscape:pageopacity="0"
   inkscape:pageshadow="2"
   inkscape:window-width="1680"
   inkscape:window-height="1028"
   id="namedview25"
   showgrid="false"
   inkscape:zoom="1.0111627"
   inkscape:cx="443.09477"
   inkscape:cy="282.54996"
   inkscape:window-x="1912"
   inkscape:window-y="-8"
   inkscape:window-maximized="1"
   inkscape:current-layer="g3" /><defs
   id="defs46" />
<g
   id="g3">
	<polygon
   points="0,0 0,9.149 225.361,9.149 225.361,59.874 0,59.874 0,129.721 9.143,129.721 9.143,69.021 233.679,69.021 233.679,0 0,0 "
   style="fill:#13007c;fill-rule:evenodd"
   id="polygon5" />
	<polygon
   points="517.252,0 517.252,9.149 742.62,9.149 742.62,59.874 517.252,59.874 517.252,129.721 751.764,129.721 751.764,120.584 527.237,120.584 527.237,69.021 751.764,69.021 751.764,0 517.252,0 "
   style="fill:#13007c;fill-rule:evenodd"
   id="polygon7" />
	<polygon
   points="353.431,0 353.431,120.584 233.679,120.584 233.679,129.721 363.407,129.721 363.407,9.149 482.325,9.149 482.325,0 353.431,0 "
   style="fill:#13007c;fill-rule:evenodd"
   id="polygon9" />
</g>
</svg>